<?xml version="1.0" encoding="UTF-8" standalone="no"?>
<!DOCTYPE svg PUBLIC "-//W3C//DTD SVG 1.1//EN" "http://www.w3.org/Graphics/SVG/1.1/DTD/svg11.dtd">
<svg width="100%" height="100%" viewBox="0 0 192 192" version="1.1" xmlns="http://www.w3.org/2000/svg" xmlns:xlink="http://www.w3.org/1999/xlink" xml:space="preserve" xmlns:serif="http://www.serif.com/" style="fill-rule:evenodd;clip-rule:evenodd;stroke-linejoin:round;stroke-miterlimit:1.5;">
    <g transform="matrix(1,0,0,1,-2064,-142)">
        <rect id="アートボード2" x="2064" y="142" width="192" height="192" style="fill:none;"/>
        <clipPath id="_clip1">
            <rect id="アートボード21" serif:id="アートボード2" x="2064" y="142" width="192" height="192"/>
        </clipPath>
        <g clip-path="url(#_clip1)">
            <g transform="matrix(1,0,0,0.630542,723,-9)">
                <g transform="matrix(0.824034,0,0,1.26559,34.0815,123.221)">
                    <rect x="1586" y="48" width="233" height="401" style="fill:rgb(251,248,243);"/>
                </g>
                <g transform="matrix(0.824034,0,0,0.672343,34.0815,395.931)">
                    <rect x="1586" y="48" width="233" height="401" style="fill:rgb(165,227,212);"/>
                </g>
                <g transform="matrix(1,0,0,1.58594,-265.5,6.34375)">
                    <path d="M1668,277C1689,269.333 1717.27,243 1726,243C1733.73,243 1749.91,254 1756,254C1762.09,254 1794.17,232.167 1799,226L1799,277L1668,277Z" style="fill:rgb(165,227,212);fill-opacity:0.5;"/>
                </g>
                <g transform="matrix(0.428571,0,0,0.679688,693.214,267.797)">
                    <circle cx="1844" cy="61" r="28" style="fill:rgb(252,188,69);"/>
                </g>
                <g transform="matrix(0.219512,0,0,1.58594,1026.62,373.488)">
                    <path d="M1480,44L1644,44" style="fill:none;stroke:white;stroke-width:1.8px;"/>
                </g>
                <g transform="matrix(0.054878,0,0,1.58594,1322.28,373.488)">
                    <path d="M1480,44L1644,44" style="fill:none;stroke:white;stroke-width:1.84px;"/>
                </g>
                <g transform="matrix(1,0,0,1.58594,-279.5,45.9922)">
                    <g transform="matrix(20,0,0,20,1708.15,261.5)">
                        <path d="M0.594,-0.266C0.594,-0.322 0.594,-0.395 0.532,-0.442C0.48,-0.481 0.426,-0.481 0.349,-0.481C0.267,-0.481 0.191,-0.481 0.13,-0.415C0.075,-0.355 0.075,-0.283 0.075,-0.2L0.075,-0.098C0.075,-0.015 0.075,0.057 0.13,0.117C0.191,0.183 0.276,0.183 0.358,0.183L0.492,0.183C0.574,0.183 0.659,0.183 0.72,0.117C0.775,0.057 0.775,-0.015 0.775,-0.098L0.775,-0.235C0.775,-0.351 0.775,-0.475 0.68,-0.571C0.584,-0.667 0.463,-0.667 0.342,-0.667L0.277,-0.667L0.277,-0.605L0.342,-0.605C0.452,-0.605 0.556,-0.605 0.632,-0.528C0.709,-0.451 0.709,-0.349 0.709,-0.235L0.709,-0.098C0.709,-0.023 0.709,0.031 0.673,0.073C0.632,0.121 0.57,0.121 0.492,0.121L0.358,0.121C0.28,0.121 0.218,0.121 0.177,0.073C0.141,0.031 0.141,-0.023 0.141,-0.098L0.141,-0.2C0.141,-0.275 0.141,-0.329 0.177,-0.371C0.218,-0.419 0.271,-0.419 0.349,-0.419C0.418,-0.419 0.456,-0.419 0.485,-0.396C0.524,-0.365 0.524,-0.318 0.524,-0.291L0.442,-0.291C0.403,-0.291 0.347,-0.291 0.3,-0.257C0.268,-0.234 0.241,-0.195 0.241,-0.142C0.241,-0.09 0.268,-0.05 0.301,-0.027C0.333,-0.004 0.374,0.006 0.422,0.006C0.482,0.006 0.529,-0.011 0.559,-0.046C0.594,-0.087 0.594,-0.133 0.594,-0.2L0.594,-0.266ZM0.524,-0.2C0.524,-0.141 0.524,-0.11 0.505,-0.088C0.488,-0.068 0.459,-0.06 0.422,-0.06C0.39,-0.06 0.362,-0.066 0.343,-0.079C0.325,-0.092 0.311,-0.114 0.311,-0.142C0.311,-0.173 0.326,-0.196 0.344,-0.209C0.372,-0.229 0.408,-0.229 0.442,-0.229L0.524,-0.229L0.524,-0.2Z" style="fill:white;fill-rule:nonzero;"/>
                    </g>
                    <g transform="matrix(20,0,0,20,1725.15,262)">
                        <path d="M0.015,-0.478L0.116,-0.141C0.138,-0.069 0.142,-0.051 0.157,-0.031C0.171,-0.013 0.194,0 0.222,0.004C0.208,0.069 0.202,0.092 0.188,0.106C0.177,0.117 0.164,0.123 0.145,0.123C0.13,0.123 0.115,0.12 0.099,0.114L0.078,0.176C0.1,0.184 0.123,0.189 0.145,0.189C0.187,0.189 0.221,0.17 0.242,0.146C0.264,0.121 0.272,0.09 0.283,0.041L0.398,-0.478L0.326,-0.478L0.236,-0.061C0.226,-0.062 0.216,-0.064 0.21,-0.073C0.204,-0.082 0.197,-0.104 0.182,-0.156L0.088,-0.478L0.015,-0.478Z" style="fill:white;fill-rule:nonzero;"/>
                    </g>
                    <g transform="matrix(20,0,0,20,1733.41,262)">
                        <path d="M0.388,-0.2L0.388,-0.274C0.388,-0.327 0.388,-0.386 0.348,-0.431C0.318,-0.465 0.273,-0.484 0.213,-0.484C0.159,-0.484 0.108,-0.472 0.061,-0.455L0.083,-0.392C0.125,-0.408 0.169,-0.418 0.213,-0.418C0.251,-0.418 0.277,-0.408 0.294,-0.389C0.318,-0.362 0.318,-0.322 0.318,-0.291L0.236,-0.291C0.197,-0.291 0.141,-0.291 0.094,-0.257C0.062,-0.234 0.035,-0.195 0.035,-0.142C0.035,-0.09 0.062,-0.05 0.095,-0.027C0.127,-0.004 0.168,0.006 0.216,0.006C0.276,0.006 0.323,-0.011 0.353,-0.046C0.388,-0.087 0.388,-0.133 0.388,-0.2ZM0.318,-0.2C0.318,-0.141 0.318,-0.11 0.299,-0.088C0.282,-0.068 0.253,-0.06 0.216,-0.06C0.184,-0.06 0.156,-0.066 0.137,-0.079C0.119,-0.092 0.105,-0.114 0.105,-0.142C0.105,-0.173 0.12,-0.196 0.138,-0.209C0.166,-0.229 0.202,-0.229 0.236,-0.229L0.318,-0.229L0.318,-0.2Z" style="fill:white;fill-rule:nonzero;"/>
                    </g>
                    <g transform="matrix(20,0,0,20,1742.17,262)">
                        <path d="M0.238,-0.484C0.192,-0.484 0.134,-0.47 0.095,-0.424C0.055,-0.377 0.055,-0.33 0.055,-0.249L0.055,0L0.125,0L0.125,-0.249C0.125,-0.312 0.125,-0.354 0.149,-0.382C0.168,-0.405 0.202,-0.418 0.238,-0.418C0.255,-0.418 0.271,-0.415 0.285,-0.41L0.306,-0.473C0.286,-0.48 0.263,-0.484 0.238,-0.484Z" style="fill:white;fill-rule:nonzero;"/>
                    </g>
                    <g transform="matrix(20,0,0,20,1748.53,262)">
                        <path d="M0.23,-0.484C0.169,-0.484 0.126,-0.458 0.102,-0.433C0.055,-0.384 0.055,-0.326 0.055,-0.256L0.055,0L0.125,0L0.125,-0.256C0.125,-0.318 0.125,-0.36 0.154,-0.389C0.171,-0.406 0.197,-0.418 0.23,-0.418C0.263,-0.418 0.289,-0.406 0.306,-0.389C0.335,-0.36 0.335,-0.318 0.335,-0.256L0.335,0L0.405,0L0.405,-0.256C0.405,-0.326 0.405,-0.384 0.358,-0.433C0.334,-0.458 0.291,-0.484 0.23,-0.484Z" style="fill:white;fill-rule:nonzero;"/>
                    </g>
                    <g transform="matrix(20,0,0,20,1757.73,262)">
                        <path d="M0.388,-0.2L0.388,-0.274C0.388,-0.327 0.388,-0.386 0.348,-0.431C0.318,-0.465 0.273,-0.484 0.213,-0.484C0.159,-0.484 0.108,-0.472 0.061,-0.455L0.083,-0.392C0.125,-0.408 0.169,-0.418 0.213,-0.418C0.251,-0.418 0.277,-0.408 0.294,-0.389C0.318,-0.362 0.318,-0.322 0.318,-0.291L0.236,-0.291C0.197,-0.291 0.141,-0.291 0.094,-0.257C0.062,-0.234 0.035,-0.195 0.035,-0.142C0.035,-0.09 0.062,-0.05 0.095,-0.027C0.127,-0.004 0.168,0.006 0.216,0.006C0.276,0.006 0.323,-0.011 0.353,-0.046C0.388,-0.087 0.388,-0.133 0.388,-0.2ZM0.318,-0.2C0.318,-0.141 0.318,-0.11 0.299,-0.088C0.282,-0.068 0.253,-0.06 0.216,-0.06C0.184,-0.06 0.156,-0.066 0.137,-0.079C0.119,-0.092 0.105,-0.114 0.105,-0.142C0.105,-0.173 0.12,-0.196 0.138,-0.209C0.166,-0.229 0.202,-0.229 0.236,-0.229L0.318,-0.229L0.318,-0.2Z" style="fill:white;fill-rule:nonzero;"/>
                    </g>
                    <g transform="matrix(20,0,0,20,1766.49,262)">
                        <path d="M0.1,-0.649C0.073,-0.649 0.053,-0.63 0.053,-0.602C0.053,-0.574 0.073,-0.555 0.1,-0.555C0.127,-0.555 0.147,-0.574 0.147,-0.602C0.147,-0.63 0.127,-0.649 0.1,-0.649ZM0.065,0L0.135,0L0.135,-0.478L0.065,-0.478L0.065,0Z" style="fill:white;fill-rule:nonzero;"/>
                    </g>
                    <g transform="matrix(20,0,0,20,1770.49,262)">
                        <path d="M0.22,-0.484C0.173,-0.484 0.132,-0.467 0.105,-0.441C0.055,-0.393 0.055,-0.331 0.055,-0.256L0.055,0L0.125,0L0.125,-0.256C0.125,-0.322 0.125,-0.367 0.155,-0.395C0.17,-0.409 0.193,-0.418 0.22,-0.418C0.247,-0.418 0.27,-0.409 0.285,-0.395C0.315,-0.367 0.315,-0.322 0.315,-0.256L0.315,0L0.385,0L0.385,-0.256C0.385,-0.322 0.385,-0.367 0.415,-0.395C0.43,-0.409 0.453,-0.418 0.48,-0.418C0.507,-0.418 0.53,-0.409 0.545,-0.395C0.575,-0.367 0.575,-0.322 0.575,-0.256L0.575,0L0.645,0L0.645,-0.256C0.645,-0.331 0.645,-0.393 0.595,-0.441C0.568,-0.467 0.527,-0.484 0.48,-0.484C0.423,-0.484 0.377,-0.459 0.35,-0.414C0.323,-0.459 0.277,-0.484 0.22,-0.484Z" style="fill:white;fill-rule:nonzero;"/>
                    </g>
                    <g transform="matrix(20,0,0,20,1784.49,262)">
                        <path d="M0.235,-0.418C0.279,-0.418 0.313,-0.4 0.333,-0.37C0.355,-0.337 0.355,-0.29 0.355,-0.239C0.355,-0.188 0.355,-0.141 0.333,-0.108C0.313,-0.078 0.279,-0.06 0.235,-0.06C0.191,-0.06 0.157,-0.078 0.137,-0.108C0.115,-0.141 0.115,-0.188 0.115,-0.239C0.115,-0.29 0.115,-0.337 0.137,-0.37C0.157,-0.4 0.191,-0.418 0.235,-0.418ZM0.235,-0.484C0.164,-0.484 0.106,-0.452 0.074,-0.399C0.045,-0.351 0.045,-0.296 0.045,-0.239C0.045,-0.182 0.045,-0.127 0.074,-0.079C0.106,-0.026 0.164,0.006 0.235,0.006C0.306,0.006 0.364,-0.026 0.396,-0.079C0.425,-0.127 0.425,-0.182 0.425,-0.239C0.425,-0.296 0.425,-0.351 0.396,-0.399C0.364,-0.452 0.306,-0.484 0.235,-0.484Z" style="fill:white;fill-rule:nonzero;"/>
                    </g>
                </g>
            </g>
        </g>
    </g>
</svg>
