<?xml version="1.0" encoding="UTF-8" standalone="no"?>
<!DOCTYPE svg PUBLIC "-//W3C//DTD SVG 1.1//EN" "http://www.w3.org/Graphics/SVG/1.1/DTD/svg11.dtd">
<svg width="100%" height="100%" viewBox="0 0 192 192" version="1.1" xmlns="http://www.w3.org/2000/svg" xmlns:xlink="http://www.w3.org/1999/xlink" xml:space="preserve" xmlns:serif="http://www.serif.com/" style="fill-rule:evenodd;clip-rule:evenodd;stroke-linejoin:round;stroke-miterlimit:2;">
    <rect id="アートボード1" x="0" y="0" width="192" height="192" style="fill:none;"/>
    <g id="アートボード11" serif:id="アートボード1">
        <circle cx="96" cy="96" r="96" style="fill:rgb(86,199,0);"/>
        <g transform="matrix(0.58333,0,0,0.58333,130.177,85.7168)">
            <path d="M0,39.787C-3.302,47.649 -7.818,54.474 -13.555,60.249C-19.291,66.029 -26.026,70.57 -33.761,73.872C-41.496,77.174 -49.79,78.824 -58.656,78.824C-67.434,78.824 -75.664,77.174 -83.355,73.872C-91.046,70.57 -97.757,66.029 -103.493,60.249C-109.229,54.474 -113.77,47.649 -117.116,39.787C-120.461,31.921 -122.132,23.427 -122.132,14.305C-122.132,5.179 -120.461,-3.336 -117.116,-11.246C-113.77,-19.152 -109.229,-25.996 -103.493,-31.776C-97.757,-37.552 -91.046,-42.093 -83.355,-45.395C-75.664,-48.696 -67.434,-50.347 -58.656,-50.347C-49.79,-50.347 -41.496,-48.696 -33.761,-45.395C-26.026,-42.093 -19.291,-37.552 -13.555,-31.776C-7.818,-25.996 -3.302,-19.152 0,-11.246C3.302,-3.336 4.953,5.179 4.953,14.305C4.953,23.427 3.302,31.921 0,39.787M37.411,14.173C37.411,1.225 34.888,-10.874 29.848,-22.13C24.807,-33.383 17.944,-43.18 9.254,-51.523C0.563,-59.865 -9.625,-66.424 -21.31,-71.205C-33.001,-75.982 -45.449,-78.372 -58.656,-78.372C-71.951,-78.372 -84.422,-75.982 -96.062,-71.205C-107.71,-66.424 -117.855,-59.865 -126.501,-51.523C-135.147,-43.18 -141.991,-33.383 -147.027,-22.13C-152.068,-10.874 -154.59,1.225 -154.59,14.173C-154.59,27.032 -152.068,39.092 -147.027,50.344C-141.991,61.597 -135.147,71.418 -126.501,79.8C-117.855,88.19 -107.71,94.79 -96.062,99.614C-84.422,104.434 -71.951,106.85 -58.656,106.85C-49.446,106.85 -40.648,105.694 -32.262,103.395C-23.875,101.093 -15.989,97.767 -8.602,93.423L9.864,112.054C15.915,118.159 25.786,118.151 31.828,112.037C37.8,105.993 37.771,96.262 31.764,90.253L15.122,73.608C22.073,65.529 27.525,56.448 31.479,46.366C35.432,36.29 37.411,25.557 37.411,14.173" style="fill:white;fill-rule:nonzero;"/>
        </g>
    </g>
</svg>
